<svg display="none" xmlns="http://www.w3.org/2000/svg">
  <symbol id="arrowBack" viewBox="0 0 20 20">
    <g>
      <path d="M15.4415 17.4648L7.69501 10L15.4415 2.53521C15.7232 2.25352 15.8875 1.90141 15.8875 1.50235C15.8875 1.10329 15.7467 0.7277 15.465 0.446009C15.1833 0.164319 14.8312 0 14.4321 0H14.4086C14.033 0 13.6575 0.140845 13.3758 0.422535L4.526 8.94366C4.24431 9.22535 4.07999 9.60094 4.07999 10C4.07999 10.3991 4.24431 10.7981 4.526 11.0563L13.3992 19.5775C13.6809 19.8357 14.033 20 14.4321 20C14.8312 20 15.2067 19.8357 15.4884 19.554C15.7701 19.2723 15.911 18.8967 15.911 18.4977C15.911 18.0986 15.7467 17.723 15.4415 17.4648Z"/>
    </g>
  </symbol>
  <symbol id="checkboxActive" viewBox="0 0 20 20">
    <g>
      <path d="M4.29306 10.7212C3.39997 9.68471 4.75038 8.09982 5.64331 9.13635L8.3843 12.3037L14.3502 5.34088C15.2433 4.29852 16.601 5.88322 15.7079 6.92558L9.06654 14.6727C8.69361 15.1081 8.08874 15.1094 7.71441 14.6749L4.29306 10.7212V10.7212Z"/>
    </g>
  </symbol>
  <symbol id="checkboxNeutral" viewBox="0 0 20 20">
    <g>
      <rect x="0.75" y="0.75" width="18.5" height="18.5" rx="2.25" stroke-width="1.5"/>
    </g>
  </symbol>
  <symbol id="delete" viewBox="0 0 20 20">
    <g>
      <path d="M17.1872 1.47368H12.9091V1.43158C12.9091 0.631579 12.2674 0 11.4545 0H8.54545C7.73262 0 7.09091 0.631579 7.09091 1.43158V1.47368H2.81283C2.36364 1.47368 2 1.83158 2 2.27368V3.07368C2 3.51579 2.36364 3.87368 2.81283 3.87368H17.1872C17.6364 3.87368 18 3.51579 18 3.07368V2.27368C18 1.83158 17.6364 1.47368 17.1872 1.47368Z"/>
      <path d="M16.1176 4.96841H3.88235C3.64705 4.96841 3.47593 5.15789 3.49732 5.38947L4.09625 17.5789C4.16042 18.9263 5.29411 20 6.66309 20H13.3155C14.6845 20 15.8182 18.9474 15.8823 17.5789L16.4813 5.38947C16.5241 5.17894 16.3315 4.96841 16.1176 4.96841ZM8.67379 16.7368C8.67379 17.1158 8.37432 17.4105 7.9893 17.4105C7.60427 17.4105 7.30481 17.1158 7.30481 16.7368V8.25262C7.30481 7.87368 7.60427 7.57894 7.9893 7.57894C8.37432 7.57894 8.67379 7.87368 8.67379 8.25262V16.7368ZM12.6952 16.7368C12.6952 17.1158 12.3957 17.4105 12.0107 17.4105C11.6257 17.4105 11.3262 17.1158 11.3262 16.7368V8.25262C11.3262 7.87368 11.6257 7.57894 12.0107 7.57894C12.3957 7.57894 12.6952 7.87368 12.6952 8.25262V16.7368Z"/>
    </g>
  </symbol>
  <symbol id="arrowDown" viewBox="0 0 20 20">
    <g>
      <path d="M9.30526 13.1368C9.66316 13.4947 10.3158 13.4947 10.6737 13.1368L14.4632 9.34737C14.8421 8.96842 14.8421 8.3579 14.4632 7.97895C14.0842 7.6 13.4737 7.6 13.0947 7.97895L10 11.0737L6.90526 7.97895C6.71579 7.78947 6.46316 7.68421 6.21053 7.68421C5.95789 7.68421 5.70526 7.78947 5.51579 7.97895C5.13684 8.3579 5.13684 8.96842 5.51579 9.34737L9.30526 13.1368Z"/>
      <path d="M10 20C15.5158 20 20 15.5158 20 10C20 4.48421 15.5158 0 10 0C4.48421 0 0 4.48421 0 10C0 15.5158 4.48421 20 10 20ZM10 1.93684C14.4421 1.93684 18.0632 5.55789 18.0632 10C18.0632 14.4421 14.4421 18.0632 10 18.0632C5.55789 18.0632 1.93684 14.4421 1.93684 10C1.93684 5.55789 5.55789 1.93684 10 1.93684Z"/>
    </g>
  </symbol>
  <symbol id="dropDown" viewBox="0 0 20 20">
    <g>
      <path d="M11.4502 16.3071L19.5526 6.2553C20.5838 4.97958 19.721 3 18.1005 3H1.89558C0.296134 3 -0.58777 4.95758 0.443451 6.2553L8.5459 16.3071C9.30354 17.231 10.6925 17.231 11.4502 16.3071Z"/>
    </g>
  </symbol>
  <symbol id="edit" viewBox="0 0 20 20">
    <g>
      <path d="M18.6342 0.605251C17.8284 -0.20175 16.5149 -0.20175 15.709 0.605251L15.2852 1.02211L19.0162 4.75249L19.3668 4.39976C19.775 3.99359 20 3.4538 20 2.87127C20 2.28873 19.775 1.74895 19.3721 1.34278L18.6342 0.605251Z"/>
      <path d="M13.4118 2.88729L17.1428 6.61765L18.2679 5.50068L14.5369 1.77032L13.4118 2.88729Z"/>
      <path d="M1.76871 14.49L0 20L5.5102 18.2043L16.3946 7.3659L12.6635 3.63553L1.76871 14.49Z"/>
    </g>
  </symbol>
  <symbol id="filter" viewBox="0 0 20 20">
    <g>
      <path d="M12 12L20 4V0H0V4L8 12V20L12 16V12Z"/>
    </g>
  </symbol>
  <symbol id="info" viewBox="0 0 20 20">
    <g>
      <path d="M3.05288 17.1929C2.09778 16.2704 1.33596 15.167 0.811868 13.9469C0.287778 12.7269 0.0119157 11.4147 0.000377568 10.0869C-0.0111606 8.7591 0.241856 7.44231 0.744665 6.21334C1.24747 4.98438 1.99001 3.86786 2.92893 2.92893C3.86786 1.99001 4.98438 1.24747 6.21334 0.744665C7.44231 0.241856 8.7591 -0.0111606 10.0869 0.000377568C11.4147 0.0119157 12.7269 0.287778 13.9469 0.811868C15.167 1.33596 16.2704 2.09778 17.1929 3.05288C19.0145 4.9389 20.0224 7.46493 19.9996 10.0869C19.9768 12.7089 18.9251 15.217 17.0711 17.0711C15.217 18.9251 12.7089 19.9768 10.0869 19.9996C7.46493 20.0224 4.9389 19.0145 3.05288 17.1929ZM15.7829 15.7829C17.284 14.2818 18.1273 12.2458 18.1273 10.1229C18.1273 7.99997 17.284 5.96401 15.7829 4.46288C14.2818 2.96176 12.2458 2.11843 10.1229 2.11843C7.99997 2.11843 5.96401 2.96176 4.46288 4.46288C2.96176 5.96401 2.11843 7.99997 2.11843 10.1229C2.11843 12.2458 2.96176 14.2818 4.46288 15.7829C5.96401 17.284 7.99997 18.1273 10.1229 18.1273C12.2458 18.1273 14.2818 17.284 15.7829 15.7829ZM9.12288 11.1229V9.12288H11.1229V15.1229H9.12288V11.1229ZM9.12288 5.12288H11.1229V7.12288H9.12288V5.12288Z"/>
    </g>
  </symbol>
  <symbol id="master" viewBox="0 0 20 20">
    <g>
      <path d="M20 1C20 0.447715 19.5523 0 19 0H11.8945C11.3422 0 10.8945 0.447715 10.8945 1V10.4044C10.8945 10.9566 11.3422 11.4044 11.8945 11.4044H19C19.5523 11.4044 20 10.9566 20 10.4044V1ZM1 0C0.447715 0 0 0.447715 0 1V5.92494C0 6.47722 0.447715 6.92494 1 6.92494H8.10549C8.65778 6.92494 9.10549 6.47722 9.10549 5.92494V0.999999C9.10549 0.447715 8.65778 0 8.10549 0H1ZM9.10549 9.59564C9.10549 9.04336 8.65778 8.59564 8.10549 8.59564H1C0.447715 8.59564 0 9.04336 0 9.59564V19C0 19.5523 0.447715 20 1 20H8.10549C8.65778 20 9.10549 19.5523 9.10549 19V9.59564ZM20 14.0751C20 13.5228 19.5523 13.0751 19 13.0751H11.8945C11.3422 13.0751 10.8945 13.5228 10.8945 14.0751V19C10.8945 19.5523 11.3422 20 11.8945 20H19C19.5523 20 20 19.5523 20 19V14.0751Z"/>
    </g>
  </symbol>
  <symbol id="breadcrumb" viewBox="0 0 20 20">
    <g>
      <path d="M9.99286 7.80488C11.1833 7.80488 12.1357 8.78049 12.1357 10C12.1357 11.2195 11.1833 12.1951 9.99286 12.1951C8.80239 12.1951 7.85001 11.2195 7.85001 10C7.85001 8.78049 8.80239 7.80488 9.99286 7.80488ZM7.85001 2.19512C7.85001 3.41463 8.80239 4.39024 9.99286 4.39024C11.1833 4.39024 12.1357 3.41463 12.1357 2.19512C12.1357 0.97561 11.1833 0 9.99286 0C8.80239 0 7.85001 0.97561 7.85001 2.19512ZM7.85001 17.8049C7.85001 19.0244 8.80239 20 9.99286 20C11.1833 20 12.1357 19.0244 12.1357 17.8049C12.1357 16.5854 11.1833 15.6098 9.99286 15.6098C8.80239 15.6098 7.85001 16.5854 7.85001 17.8049Z"/>
    </g>
  </symbol>
  <symbol id="radioActive" viewBox="0 0 20 20">
    <g>
      <path fill-rule="evenodd" clip-rule="evenodd" d="M10 20C15.5228 20 20 15.5228 20 10C20 4.47715 15.5228 0 10 0C4.47715 0 0 4.47715 0 10C0 15.5228 4.47715 20 10 20ZM10 13C11.6569 13 13 11.6569 13 10C13 8.34315 11.6569 7 10 7C8.34315 7 7 8.34315 7 10C7 11.6569 8.34315 13 10 13Z"/>
    </g>
  </symbol>
  <symbol id="radioNeutral" viewBox="0 0 20 20">
    <g>
      <circle cx="10" cy="10" r="9.25" stroke-width="1.5"/>
    </g>
  </symbol>
</svg>
